<svg xmlns="http://www.w3.org/2000/svg" width="1200" height="252.1" viewBox="0 0 1200 252.1"><defs><style>.cls-1{fill:#2d4052;}.cls-2{fill:#f95631;}</style></defs><g id="Layer_2" data-name="Layer 2"><g id="Layer_1-2" data-name="Layer 1"><g id="Snap_One-color" data-name="Snap One-color"><path class="cls-1" d="M311.36,135.31c-29.35-7.76-32-21.59-32-34.68,0-18.43,19.4-33.71,41.72-33.71,21.58,0,42.92,9.7,44.13,35.65H337.06c-.72-8.49-8.49-11.64-15.27-11.64-7.53,0-14.31,2.66-14.31,11.15,0,4.61,5.33,7.76,11.88,9.46l18.92,4.61c26.19,7.27,29.58,24.74,29.58,33.95,0,23.29-22.79,34.93-46.32,34.93-22.31,0-44.87-13.83-45.6-38.08H303.6c.72,8,9.94,15,20.85,14.31,8.49-.24,14.8-4.85,14.8-11.4.24-5.82-3.88-8.73-12.37-10.67Z"/><path class="cls-1" d="M407.7,182.6H378.11V69.34H407.7V86.08c6.54-12.37,20.37-19.16,33.71-19.16,26.43,0,42.2,16.49,42.2,48.74V182.6H454V121c0-16.49-8.73-25.22-21.59-25.22-13.58,0-24.73,6.79-24.73,26.43Z"/><path class="cls-1" d="M588.59,168.05c-7,11.64-24.26,16.73-35.17,16.73-29.83,0-57.72-22.79-57.72-58.93s27.89-58.93,57.72-58.93c10.43,0,26.68,4.12,35.17,16.49V69.34h29.59V182.6H588.59Zm-31.05-11.64c16.25,0,31.05-11.16,31.05-30.56s-15.53-30.56-31.05-30.56c-16.49,0-31.28,12.13-31.28,30.56S541.05,156.41,557.54,156.41Z"/><path class="cls-1" d="M664.41,84.62c6.07-11.4,20.62-17.7,35.42-17.7,29.58,0,55.29,23.28,55.29,58.93,0,36.14-25.71,59.18-55.29,59.18-14.8,0-29.35-6.07-35.42-17.46v70.09H634.83V69.34h29.58ZM695,156.89c16.25,0,29.84-12.12,29.84-30.55,0-18.68-13.59-31-29.84-31s-30.07,12.13-30.07,31.05C664.9,145.74,679.45,156.89,695,156.89Z"/><path class="cls-1" d="M805.58,125.61c0-35.9,26.92-58.69,59.17-58.69s59.18,22.79,59.18,58.69S897,185,864.75,185,805.58,161.5,805.58,125.61Zm107.44,0C913,96.5,891,77.83,864.75,77.83s-48.26,18.67-48.26,47.78c0,29.34,22.07,48.5,48.26,48.5S913,155,913,125.61Z"/><path class="cls-1" d="M939.29,69.34h11.16V91.65c6.55-18.19,24.49-24.73,40-24.73,27.16,0,45.11,18.91,45.11,49.23V182.6h-10.92V116.15c0-24-13.82-38.32-34.19-38.32-19.89,0-39.29,11.15-40,41.23V182.6H939.29Z"/><path class="cls-1" d="M1162.24,130.7H1061.1c1.94,26.44,21.59,43.41,45.84,43.41,17.22,0,31.53-8,39.53-21.58l10.43,3.64c-9.7,18.43-28.37,28.86-50,28.86-31.77,0-57-23.53-57-59.42s25.23-58.69,57-58.69c32.26,0,55.54,22.79,55.54,58.69A36.15,36.15,0,0,1,1162.24,130.7ZM1061.1,120.51h90.22c-2.18-26.19-19.89-42.68-44.38-42.68C1082.93,77.83,1063,94.32,1061.1,120.51Z"/><path class="cls-1" d="M225.49,41.49,169.12,13.31a126,126,0,0,0-112.75,0h0L225.49,97.87Z"/><polygon class="cls-2" points="56.37 69.68 91.35 52.2 34.96 24 0 41.49 0 97.87 225.49 210.61 225.49 154.24 56.37 69.68"/><path class="cls-1" d="M147.73,193.13l-2.49,1.25a72.69,72.69,0,0,1-65,0L0,154.24v56.37L56.37,238.8a126.09,126.09,0,0,0,112.75,0l35-17.49Z"/><path class="cls-1" d="M1162.48,70.07V66.92h13.76v3.15h-5.1V85.26h-3.6V70.07ZM1200,85.26h-3.77l-1.34-11.55-4.57,9.5h-2.8l-4.62-9.46-1.38,11.51h-3.72l2.31-18.34h3l5.81,12.21,5.68-12.21h3.11Z"/></g></g></g></svg>